<?xml version="1.0" encoding="UTF-8"?>
<svg width="1426px" height="414px" viewBox="0 0 1426 414" version="1.1" xmlns="http://www.w3.org/2000/svg" xmlns:xlink="http://www.w3.org/1999/xlink">
    <!-- Generator: Sketch 51.3 (57544) - http://www.bohemiancoding.com/sketch -->
    <title>Webrecorder-logo-vector</title>
    <desc>Created with Sketch.</desc>
    <defs></defs>
    <g id="Webrecorder-logo-vector" stroke="none" stroke-width="1" fill="none" fill-rule="evenodd">
        <path d="M382.2,160.95 L346.2,259.2 L330.6,266.85 L306.75,196.2 L284.4,259.2 L268.8,266.85 L230.25,160.65 L216,152.1 L219,146.1 L260.1,146.1 L260.1,150.75 L249.15,159 L280.35,246.9 L302.7,184.5 L294.6,160.5 L280.8,152.1 L283.8,146.1 L327.9,146.1 L327.9,150.75 L314.55,161.1 L342.45,246.6 L373.35,161.1 L346.65,152.1 L349.65,146.1 L395.25,146.1 L395.25,150.75 L382.2,160.95 Z M432.65,264.3 C428.64998,265.100004 423.850028,265.5 418.25,265.5 C411.649967,265.5 405.725026,263.775017 400.475,260.325 C395.224974,256.874983 391.125015,252.20003 388.175,246.3 C385.224985,240.39997 383.75,233.900036 383.75,226.8 C383.75,219.099962 386.099977,211.875034 390.8,205.125 C395.500023,198.374966 401.374965,192.97502 408.425,188.925 C415.475035,184.87498 422.299967,182.85 428.9,182.85 C438.400047,182.85 445.774974,186.599963 451.025,194.1 C456.275026,201.600037 458.9,211.499938 458.9,223.8 L403.4,223.8 C404.000003,232.300043 406.32498,239.249973 410.375,244.65 C414.42502,250.050027 419.949965,252.75 426.95,252.75 C433.450032,252.75 442.69994,247.70005 454.7,237.6 L459.2,243.3 L432.65,264.3 Z M420.2,195.45 C409.399946,195.45 403.750002,202.849926 403.25,217.65 L438.35,217.65 C437.449995,212.249973 436.525005,208.125014 435.575,205.275 C434.624995,202.424986 432.975012,200.075009 430.625,198.225 C428.274988,196.374991 424.800023,195.45 420.2,195.45 Z M526.45,182.85 C531.850027,182.85 536.724978,184.574983 541.075,188.025 C545.425022,191.475017 548.824988,196.14997 551.275,202.05 C553.725012,207.950029 554.95,214.449964 554.95,221.55 C554.95,229.250038 552.600023,236.474966 547.9,243.225 C543.199976,249.975034 537.325035,255.37498 530.275,259.425 C523.224965,263.47502 516.400033,265.5 509.8,265.5 C505.699979,265.5 501.875018,264.600009 498.325,262.8 C494.774982,260.999991 491.650013,258.450017 488.95,255.15 L482.5,264 L476.8,264 L476.8,156.6 L463.45,147.3 L463.45,142.65 L489.1,133.05 L494.8,133.05 L494.8,199.95 L514.9,184.05 C518.100016,183.249996 521.949977,182.85 526.45,182.85 Z M518.5,252.9 C529.800056,252.9 535.45,244.85008 535.45,228.75 C535.45,219.449954 534.000014,211.600032 531.1,205.2 C528.199985,198.799968 524.100027,195.6 518.8,195.6 C514.999981,195.6 511.300018,196.349993 507.7,197.85 C504.099982,199.350008 499.800025,202.299978 494.8,206.7 L494.8,233.55 C494.8,239.050028 496.84998,243.649982 500.95,247.35 C505.05002,251.050018 510.899962,252.9 518.5,252.9 Z M617.85,183 C621.150016,183 624.049987,183.899991 626.55,185.7 C629.050012,187.500009 630.999993,189.999984 632.4,193.2 L622.5,205.65 L616.8,205.65 C616.399998,203.149988 615.675005,201.375005 614.625,200.325 C613.574995,199.274995 612.150009,198.75 610.35,198.75 C608.149989,198.75 605.825012,199.324994 603.375,200.475 C600.924988,201.625006 598.150015,203.799984 595.05,207 L595.05,251.7 L616.05,258.15 L613.05,264.15 L563.7,264.15 L563.7,259.5 L577.05,249 L577.05,206.55 L563.7,198.75 L563.7,194.1 L589.35,181.5 L594,199.95 L609.6,184.05 C611.70001,183.249996 614.449983,182.85 617.85,182.85 L617.85,183 Z M682.7,264.3 C678.69998,265.100004 673.900028,265.5 668.3,265.5 C661.699967,265.5 655.775026,263.775017 650.525,260.325 C645.274974,256.874983 641.175015,252.20003 638.225,246.3 C635.274985,240.39997 633.8,233.900036 633.8,226.8 C633.8,219.099962 636.149977,211.875034 640.85,205.125 C645.550023,198.374966 651.424965,192.97502 658.475,188.925 C665.525035,184.87498 672.349967,182.85 678.95,182.85 C688.450047,182.85 695.824974,186.599963 701.075,194.1 C706.325026,201.600037 708.95,211.499938 708.95,223.8 L653.45,223.8 C654.050003,232.300043 656.37498,239.249973 660.425,244.65 C664.47502,250.050027 669.999965,252.75 677,252.75 C683.500032,252.75 692.74994,247.70005 704.75,237.6 L709.25,243.3 L682.7,264.3 Z M670.25,195.45 C659.449946,195.45 653.800003,202.849926 653.3,217.65 L688.4,217.65 C687.499996,212.249973 686.575005,208.125014 685.625,205.275 C684.674995,202.424986 683.025012,200.075009 680.675,198.225 C678.324988,196.374991 674.850023,195.45 670.25,195.45 Z M762.4,182.85 C766.50002,182.85 771.274973,183.424994 776.725,184.575 C782.175027,185.725006 786.099988,186.999993 788.5,188.4 L788.5,211.5 L782.8,211.5 C778.89998,206.499975 774.425025,202.575014 769.375,199.725 C764.324975,196.874986 759.100027,195.45 753.7,195.45 C749.099977,195.45 745.625012,197.499979 743.275,201.6 C740.924988,205.70002 739.75,211.699961 739.75,219.6 C739.75,229.000047 741.799979,236.874968 745.9,243.225 C750.000021,249.575032 755.849962,252.75 763.45,252.75 C769.150028,252.75 777.249947,248.650041 787.75,240.45 L792.25,246.15 L769.15,264.3 C765.14998,265.100004 760.350028,265.5 754.75,265.5 C748.149967,265.5 742.225026,263.775017 736.975,260.325 C731.724974,256.874983 727.625015,252.20003 724.675,246.3 C721.724985,240.39997 720.25,233.900036 720.25,226.8 C720.25,219.099962 722.424978,211.850034 726.775,205.05 C731.125022,198.249966 736.599967,192.85002 743.2,188.85 C749.800033,184.84998 756.199969,182.85 762.4,182.85 Z M847.35,182.85 C853.950033,182.85 859.874974,184.574983 865.125,188.025 C870.375026,191.475017 874.474985,196.14997 877.425,202.05 C880.375015,207.950029 881.85,214.449964 881.85,221.55 C881.85,229.250038 879.500023,236.474966 874.8,243.225 C870.099976,249.975034 864.225035,255.37498 857.175,259.425 C850.124965,263.47502 843.300033,265.5 836.7,265.5 C830.099967,265.5 824.175026,263.775017 818.925,260.325 C813.674974,256.874983 809.575015,252.20003 806.625,246.3 C803.674985,240.39997 802.2,233.900036 802.2,226.8 C802.2,219.099962 804.549976,211.875034 809.25,205.125 C813.950023,198.374966 819.824965,192.97502 826.875,188.925 C833.925035,184.87498 840.749967,182.85 847.35,182.85 Z M838.65,195.45 C827.349943,195.45 821.7,203.49992 821.7,219.6 C821.7,229.100048 823.749979,237.024968 827.85,243.375 C831.95002,249.725032 837.799962,252.9 845.4,252.9 C856.700056,252.9 862.35,244.800081 862.35,228.6 C862.35,219.199953 860.30002,211.325032 856.2,204.975 C852.099979,198.624968 846.250038,195.45 838.65,195.45 Z M944.75,183 C948.050016,183 950.949987,183.899991 953.45,185.7 C955.950012,187.500009 957.899993,189.999984 959.3,193.2 L949.4,205.65 L943.7,205.65 C943.299998,203.149988 942.575005,201.375005 941.525,200.325 C940.474995,199.274995 939.050009,198.75 937.25,198.75 C935.049989,198.75 932.725012,199.324994 930.275,200.475 C927.824988,201.625006 925.050015,203.799984 921.95,207 L921.95,251.7 L942.95,258.15 L939.95,264.15 L890.6,264.15 L890.6,259.5 L903.95,249 L903.95,206.55 L890.6,198.75 L890.6,194.1 L916.25,181.5 L920.9,199.95 L936.5,184.05 C938.60001,183.249996 941.349983,182.85 944.75,182.85 L944.75,183 Z M1049.05,264 L1020.55,264 L1020.55,253.2 L1006.6,264.3 C1003.39998,265.100004 999.550023,265.5 995.05,265.5 C988.449967,265.5 982.525026,263.775017 977.275,260.325 C972.024974,256.874983 967.925015,252.20003 964.975,246.3 C962.024985,240.39997 960.55,233.900036 960.55,226.8 C960.55,219.099962 962.899976,211.875034 967.6,205.125 C972.300023,198.374966 978.174965,192.97502 985.225,188.925 C992.275035,184.87498 999.099967,182.85 1005.7,182.85 C1011.20003,182.85 1016.19998,184.399985 1020.7,187.5 L1020.7,156.6 L1007.35,147.3 L1007.35,142.65 L1033,133.05 L1038.7,133.05 L1038.7,252.75 L1052.05,258 L1049.05,264 Z M1002.7,252.75 C1005.70001,252.75 1008.57499,252.325004 1011.325,251.475 C1014.07501,250.624996 1017.14998,249.000012 1020.55,246.6 L1020.55,212.4 C1019.95,207.399975 1017.62502,203.325016 1013.575,200.175 C1009.52498,197.024984 1004.00003,195.45 997,195.45 C985.699943,195.45 980.05,203.49992 980.05,219.6 C980.05,229.000047 981.99998,236.874968 985.9,243.225 C989.800019,249.575032 995.399963,252.75 1002.7,252.75 Z M1105.35,264.3 C1101.34998,265.100004 1096.55003,265.5 1090.95,265.5 C1084.34997,265.5 1078.42503,263.775017 1073.175,260.325 C1067.92497,256.874983 1063.82501,252.20003 1060.875,246.3 C1057.92499,240.39997 1056.45,233.900036 1056.45,226.8 C1056.45,219.099962 1058.79998,211.875034 1063.5,205.125 C1068.20002,198.374966 1074.07496,192.97502 1081.125,188.925 C1088.17504,184.87498 1094.99997,182.85 1101.6,182.85 C1111.10005,182.85 1118.47497,186.599963 1123.725,194.1 C1128.97503,201.600037 1131.6,211.499938 1131.6,223.8 L1076.1,223.8 C1076.7,232.300043 1079.02498,239.249973 1083.075,244.65 C1087.12502,250.050027 1092.64997,252.75 1099.65,252.75 C1106.15003,252.75 1115.39994,247.70005 1127.4,237.6 L1131.9,243.3 L1105.35,264.3 Z M1092.9,195.45 C1082.09995,195.45 1076.45,202.849926 1075.95,217.65 L1111.05,217.65 C1110.15,212.249973 1109.225,208.125014 1108.275,205.275 C1107.325,202.424986 1105.67501,200.075009 1103.325,198.225 C1100.97499,196.374991 1097.50002,195.45 1092.9,195.45 Z M1194.8,183 C1198.10002,183 1200.99999,183.899991 1203.5,185.7 C1206.00001,187.500009 1207.94999,189.999984 1209.35,193.2 L1199.45,205.65 L1193.75,205.65 C1193.35,203.149988 1192.62501,201.375005 1191.575,200.325 C1190.52499,199.274995 1189.10001,198.75 1187.3,198.75 C1185.09999,198.75 1182.77501,199.324994 1180.325,200.475 C1177.87499,201.625006 1175.10002,203.799984 1172,207 L1172,251.7 L1193,258.15 L1190,264.15 L1140.65,264.15 L1140.65,259.5 L1154,249 L1154,206.55 L1140.65,198.75 L1140.65,194.1 L1166.3,181.5 L1170.95,199.95 L1186.55,184.05 C1188.65001,183.249996 1191.39998,182.85 1194.8,182.85 L1194.8,183 Z" id="Webrecorder" fill="#000000"></path>
    </g>
</svg>